<svg id="Ebene_1" data-name="Ebene 1" xmlns="http://www.w3.org/2000/svg" viewBox="0 0 156.58 35"><defs><style>.cls-1{fill:#ece320;}.cls-2{fill:#1d1d1b;}</style></defs><path class="cls-1" d="M18.53,129.21s23.86,3.74,58-5.9a100,100,0,0,0,5.06,24.83c-19.77,11.93-49.54,10.72-64,9.28C18.53,142.47,18.53,129.21,18.53,129.21Z" transform="translate(-17.56 -123.31)"/><path class="cls-2" d="M36.89,133.21v15.23H35.17v-7H27.26v7H25.55V133.21h1.71V140h7.91v-6.81Z" transform="translate(-17.56 -123.31)"/><path class="cls-2" d="M50.59,147v1.22a2.26,2.26,0,0,1-1.3.35c-1.34,0-1.94-1-1.94-2.22v-.07H47.3a4,4,0,0,1-3.93,2.45c-2.27,0-3.75-1.29-3.75-3.28,0-2.43,2.18-3.15,5.35-3.61l2.26-.32v-.23c0-2.11-.81-3.13-2.75-3.13a3.13,3.13,0,0,0-3,1.71L40.27,139a4.4,4.4,0,0,1,4.21-2.29c2.89,0,4.37,1.39,4.37,4.33v4.85c0,1,.28,1.32.84,1.32A2,2,0,0,0,50.59,147Zm-3.36-4v-.25L45,143c-2.15.3-3.7.7-3.7,2.32,0,1.31.92,2,2.24,2C45.54,147.3,47.23,146.08,47.23,143Z" transform="translate(-17.56 -123.31)"/><path class="cls-2" d="M52.49,137.1H53.6l.44,2h.05a3.73,3.73,0,0,1,3.77-2.41c2.31,0,3.84,1.41,3.84,4.35v7.36H60.08v-7.17c0-2.16-.88-3.13-2.62-3.13-2,0-3.35,1.32-3.35,4.3v6H52.49Z" transform="translate(-17.56 -123.31)"/><path class="cls-2" d="M64.13,145.68l1.34-.67a3.11,3.11,0,0,0,3.13,2.36c1.41,0,2.29-.74,2.29-1.92s-.56-1.64-2.76-2.43-3.21-1.73-3.21-3.26a3.17,3.17,0,0,1,3.45-3,4.17,4.17,0,0,1,3.09,1.16L70.52,139a2.94,2.94,0,0,0-2.13-.9c-1.14,0-1.83.62-1.83,1.61,0,.84.67,1.39,2.34,1.95,2.73.9,3.63,1.83,3.63,3.7s-1.62,3.4-3.91,3.4A4.35,4.35,0,0,1,64.13,145.68Z" transform="translate(-17.56 -123.31)"/><path class="cls-2" d="M94.2,147v1.46H85V133.21h1.71V147Z" transform="translate(-17.56 -123.31)"/><path class="cls-2" d="M94.76,152.78v-1.43a2.94,2.94,0,0,0,1.45.37c.93,0,1.37-.46,2-2.2l.49-1.27L94.18,137.1H96l3.52,9.42h0l3.36-9.42h1.69L99.68,150c-.92,2.38-1.69,3.1-3.33,3.1A3.58,3.58,0,0,1,94.76,152.78Z" transform="translate(-17.56 -123.31)"/><path class="cls-2" d="M105.61,145.68,107,145a3.11,3.11,0,0,0,3.13,2.36c1.41,0,2.29-.74,2.29-1.92s-.56-1.64-2.76-2.43-3.21-1.73-3.21-3.26a3.17,3.17,0,0,1,3.44-3,4.18,4.18,0,0,1,3.1,1.16L112,139a2.9,2.9,0,0,0-2.12-.9c-1.14,0-1.83.62-1.83,1.61,0,.84.67,1.39,2.34,1.95,2.73.9,3.63,1.83,3.63,3.7s-1.62,3.4-3.91,3.4A4.35,4.35,0,0,1,105.61,145.68Z" transform="translate(-17.56 -123.31)"/><path class="cls-2" d="M126.74,147v1.22a2.26,2.26,0,0,1-1.3.35c-1.34,0-1.94-1-1.94-2.22v-.07h0a4,4,0,0,1-3.93,2.45c-2.27,0-3.75-1.29-3.75-3.28,0-2.43,2.18-3.15,5.34-3.61l2.27-.32v-.23c0-2.11-.81-3.13-2.75-3.13a3.13,3.13,0,0,0-3,1.71l-1.25-.83a4.4,4.4,0,0,1,4.21-2.29c2.89,0,4.37,1.39,4.37,4.33v4.85c0,1,.28,1.32.84,1.32A2,2,0,0,0,126.74,147Zm-3.36-4v-.25l-2.24.32c-2.15.3-3.7.7-3.7,2.32,0,1.31.92,2,2.24,2C121.69,147.3,123.38,146.08,123.38,143Z" transform="translate(-17.56 -123.31)"/><path class="cls-2" d="M128.64,137.1h1.11l.44,2h0a3.75,3.75,0,0,1,3.78-2.41c2.31,0,3.84,1.41,3.84,4.35v7.36h-1.62v-7.17c0-2.16-.88-3.13-2.62-3.13-2,0-3.35,1.32-3.35,4.3v6h-1.62Z" transform="translate(-17.56 -123.31)"/><path class="cls-2" d="M140.44,142.79c0-3.61,2.25-6.06,5.42-6.06a4.32,4.32,0,0,1,4.11,2.38H150V133l1.62-.35v15.78h-1.11l-.44-2.16H150a4.36,4.36,0,0,1-4.18,2.48C142.69,148.76,140.44,146.24,140.44,142.79Zm9.7,0c0-2.64-1.72-4.61-4-4.61s-4,2-4,4.58,1.71,4.63,4,4.63S150.14,145.38,150.14,142.75Z" transform="translate(-17.56 -123.31)"/><path class="cls-2" d="M165.29,143.16H156a4.12,4.12,0,0,0,4.05,4.19,4,4,0,0,0,3.56-1.81l1.18.88c-.81,1.35-2.34,2.34-4.84,2.34-3.31,0-5.64-2.5-5.64-6s2.31-6,5.57-6,5.41,2.45,5.41,5.9Zm-9.22-1.27h7.51a3.88,3.88,0,0,0-3.7-3.75A4,4,0,0,0,156.07,141.89Z" transform="translate(-17.56 -123.31)"/><path class="cls-2" d="M167.89,137.1H169l.42,2.38h0a3.63,3.63,0,0,1,3.5-2.75,2.62,2.62,0,0,1,1.18.21l-.21,1.48a2.67,2.67,0,0,0-1.13-.21c-2,0-3.29,1.94-3.29,4.91v5.32h-1.62Z" transform="translate(-17.56 -123.31)"/></svg>